<svg version="1.1" viewBox="0 0 44 11" xmlns="http://www.w3.org/2000/svg">
 <g transform="matrix(1.0016 0 0 1.0084 -29.76 -126.22)" stroke-width=".26458">
  <path d="m31.913 128.68v-2.9845l-1.6722 0.17991v7.0297s0.11395 0.69455-0.52917 0.82317c0.68989 0.0117 2.0108 0 2.0108 0l0.0635-0.508c0.32808 0.4445 0.8255 0.68791 1.3864 0.68791 1.4605 0 2.2542-1.27 2.2542-3.0057 0-1.8309-0.635-2.9845-2.0743-2.9845-0.5715 0-1.0901 0.29633-1.4393 0.762zm0.8255 4.0111c-0.35983 0-0.61383-0.17992-0.8255-0.508v-2.3707c0.24342-0.41275 0.52917-0.65616 0.91017-0.65616 0.52917 0 0.87842 0.37041 0.87842 1.7674 0 1.27-0.37042 1.7674-0.96308 1.7674z"/>
  <path d="m36.671 128.11h-1.6722v4.0534c0 1.0689 0.51858 1.7462 1.6087 1.7462 0.67733 0 1.3441-0.28575 1.7251-0.83608l0.07408 0.65617h1.4605v-5.6198h-1.6722v3.9476c-0.23283 0.381-0.61383 0.61383-0.9525 0.61383-0.35983 0-0.5715-0.16933-0.5715-0.71966z"/>
  <path d="m44.753 127.21c-0.67733 0.40217-1.397 0.75142-2.6458 0.71967-1.4711 0-2.5082 0.78317-2.5082 2.0532 0 0.73025 0.28575 1.2277 0.99483 1.6087-0.40217 0.254-0.62442 0.65617-0.62442 1.0689 0 0.59267 0.508 1.1112 1.7357 1.1112h0.889c0.56092 0 0.81492 0.23283 0.81492 0.56092 0 0.37041-0.24342 0.64558-1.3018 0.64558-1.0689 0-2.369-0.60331-2.2395-1.2488h-1.4605c0.0084 1.1154 1.4987 2.3495 3.6577 2.3495 1.9897 0 3.0057-0.70909 3.0057-1.8627 0-0.94192-0.83608-1.6298-2.1378-1.6298h-0.93133c-0.53975 0-0.61383-0.16934-0.61383-0.33867 0-0.127 0.0635-0.254 0.17992-0.3175 0.20108 0.0423 0.41275 0.0635 0.65617 0.0635 1.4499 0 2.3812-0.79375 2.3812-1.8838 0-0.73025-0.381-1.143-1.0901-1.4499 0.70908 0 1.2277-0.0635 1.6192-0.22225zm-2.6035 1.8098c0.56092 0 0.85725 0.29634 0.85725 0.92075 0 0.64559-0.30692 0.98425-0.85725 0.98425-0.51858 0-0.85725-0.34925-0.85725-0.96308 0-0.58208 0.32808-0.94192 0.85725-0.94192z"/>
  <path d="m49.247 132.11v-2.2013c0-1.2912-0.78317-1.9897-2.4553-1.9897-0.62442 0-1.4605 0.14816-2.1908 0.42333l0.381 1.1112c0.56092-0.1905 1.1853-0.29633 1.5452-0.29633 0.71967 0 1.1112 0.27516 1.1112 0.86783v0.20108h-0.75142c-1.7357 0-2.7411 0.6985-2.7411 1.9156 0 1.0372 0.74083 1.7674 1.905 1.7674 0.6985 0 1.4076-0.24341 1.8415-0.762 0.26458 0.46567 0.89698 0.57311 1.9114 0.58209l0.34925-1.1007c-0.26458-0.0952-0.90603-0.0952-0.90603-0.51858zm-2.6247 0.60325c-0.47625 0-0.75142-0.254-0.75142-0.68792 0-0.55033 0.42333-0.84667 1.3547-0.84667h0.41275v0.92075c-0.21167 0.39159-0.65617 0.61384-1.016 0.61384z"/>
  <path d="m51.476 128.68v-2.9845l-1.6722 0.17991v7.8528h1.4817l0.0635-0.508c0.32808 0.4445 0.8255 0.68791 1.3864 0.68791 1.4605 0 2.2542-1.27 2.2542-3.0057 0-1.8309-0.635-2.9845-2.0743-2.9845-0.5715 0-1.0901 0.29633-1.4393 0.762zm0.8255 4.0111c-0.35983 0-0.61383-0.17992-0.8255-0.508v-2.3707c0.24342-0.41275 0.52917-0.65616 0.91017-0.65616 0.52917 0 0.87842 0.37041 0.87842 1.7674 0 1.27-0.37042 1.7674-0.96308 1.7674z"/>
  <path d="m56.456 125.17c-0.58208 0-0.99483 0.41275-0.99483 0.94192 0 0.53975 0.41275 0.94191 0.99483 0.94191s0.98425-0.40216 0.98425-0.94191c0-0.52917-0.40217-0.94192-0.98425-0.94192zm1.0054 2.9422h-4.2651l1.0583 1.143h1.5346v3.3338h-1.5875l-1.0583 1.143h5.7573v-1.143h-1.4393z"/>
  <path d="m58.262 133.73h1.6722v-3.9264c0.3175-0.40217 0.62442-0.64558 0.98425-0.64558 0.41275 0 0.53975 0.23283 0.53975 0.93133v3.6407h1.6722v-4.1275c0-1.0689-0.58208-1.6828-1.5452-1.6828-0.71967 0-1.2488 0.27516-1.7462 0.83608l-0.11642-0.64558h-1.4605z"/>
  <path d="m68.015 127.21c-0.67733 0.40217-1.397 0.75142-2.6458 0.71967-1.4711 0-2.5082 0.78317-2.5082 2.0532 0 0.73025 0.28575 1.2277 0.99483 1.6087-0.40217 0.254-0.62442 0.65617-0.62442 1.0689 0 0.59267 0.508 1.1112 1.7357 1.1112h0.889c0.56092 0 0.81492 0.23283 0.81492 0.56092 0 0.37041-0.24342 0.64558-1.3018 0.64558-1.0689 0-2.3813-0.32497-2.2395-1.2488h-1.6722c-0.01181 1.8318 1.7104 2.3495 3.8694 2.3495 1.9897 0 3.0057-0.70909 3.0057-1.8627 0-0.94192-0.83608-1.6298-2.1378-1.6298h-0.93133c-0.53975 0-0.61383-0.16934-0.61383-0.33867 0-0.127 0.0635-0.254 0.17992-0.3175 0.20108 0.0423 0.41275 0.0635 0.65617 0.0635 1.4499 0 2.3812-0.79375 2.3812-1.8838 0-0.73025-0.381-1.143-1.0901-1.4499 0.70908 0 1.2277-0.0635 1.6192-0.22225zm-2.6035 1.8098c0.56092 0 0.85725 0.29634 0.85725 0.92075 0 0.64559-0.30692 0.98425-0.85725 0.98425-0.51858 0-0.85725-0.34925-0.85725-0.96308 0-0.58208 0.32808-0.94192 0.85725-0.94192z"/>
  <path d="m72.509 132.11v-2.2013c0-1.2912-0.78317-1.9897-2.4553-1.9897-0.62442 0-1.4605 0.14816-2.1908 0.42333l0.381 1.1112c0.56092-0.1905 1.1853-0.29633 1.5452-0.29633 0.71967 0 1.1112 0.27516 1.1112 0.86783v0.20108h-0.75142c-1.7357 0-2.7411 0.6985-2.7411 1.9156 0 1.0372 0.74083 1.7674 1.905 1.7674 0.6985 0 1.4076-0.24341 1.8415-0.762 0.26458 0.46567 0.71967 0.67734 1.3758 0.74084 0 0 0.51358 0.0679 1.1101-0.0325-1.1766-0.70976-1.126-0.98053-1.1312-1.7455zm-2.6247 0.60325c-0.47625 0-0.75142-0.254-0.75142-0.68792 0-0.55033 0.42333-0.84667 1.3547-0.84667h0.41275v0.92075c-0.21167 0.39159-0.65617 0.61384-1.016 0.61384z"/>
 </g>
</svg>
