<?xml version="1.0" encoding="UTF-8" standalone="no"?>
<svg
   xmlns:dc="http://purl.org/dc/elements/1.1/"
   xmlns:cc="http://creativecommons.org/ns#"
   xmlns:rdf="http://www.w3.org/1999/02/22-rdf-syntax-ns#"
   xmlns:svg="http://www.w3.org/2000/svg"
   xmlns="http://www.w3.org/2000/svg"
   xmlns:sodipodi="http://sodipodi.sourceforge.net/DTD/sodipodi-0.dtd"
   xmlns:inkscape="http://www.inkscape.org/namespaces/inkscape"
   version="1.1"
   id="svg22"
   sodipodi:docname="bugabinga.svg"
   width="44"
   height="11.000001"
   inkscape:version="0.92.1 r">
  <metadata
     id="metadata28">
    <rdf:RDF>
      <cc:Work
         rdf:about="">
        <dc:format>image/svg+xml</dc:format>
        <dc:type
           rdf:resource="http://purl.org/dc/dcmitype/StillImage" />
        <dc:title></dc:title>
      </cc:Work>
    </rdf:RDF>
  </metadata>
  <defs
     id="defs26" />
  <sodipodi:namedview
     pagecolor="#ffffff"
     bordercolor="#666666"
     borderopacity="1"
     objecttolerance="10"
     gridtolerance="10"
     guidetolerance="10"
     inkscape:pageopacity="0"
     inkscape:pageshadow="2"
     inkscape:window-width="1366"
     inkscape:window-height="713"
     id="namedview24"
     showgrid="false"
     fit-margin-top="0"
     fit-margin-left="0"
     fit-margin-right="0"
     fit-margin-bottom="0"
     inkscape:document-units="px"
     units="px"
     inkscape:zoom="2.36"
     inkscape:cx="122.0339"
     inkscape:cy="50.000007"
     inkscape:window-x="0"
     inkscape:window-y="27"
     inkscape:window-maximized="1"
     inkscape:current-layer="svg22" />
  <g
     id="g20"
     transform="matrix(1.0016265,0,0,1.0083538,-29.759956,-126.21565)"
     style="stroke-width:0.26458001">
    <path
       d="m 31.913,128.68 v -2.9845 l -1.6722,0.17991 v 7.0297 c 0,0 0.11395,0.69455 -0.52917,0.82317 0.68989,0.0117 2.0108,0 2.0108,0 l 0.0635,-0.508 c 0.32808,0.4445 0.8255,0.68791 1.3864,0.68791 1.4605,0 2.2542,-1.27 2.2542,-3.0057 0,-1.8309 -0.635,-2.9845 -2.0743,-2.9845 -0.5715,0 -1.0901,0.29633 -1.4393,0.762 z m 0.8255,4.0111 c -0.35983,0 -0.61383,-0.17992 -0.8255,-0.508 v -2.3707 c 0.24342,-0.41275 0.52917,-0.65616 0.91017,-0.65616 0.52917,0 0.87842,0.37041 0.87842,1.7674 0,1.27 -0.37042,1.7674 -0.96308,1.7674 z"
       id="path2"
       inkscape:connector-curvature="0" />
    <path
       d="m 36.671,128.11 h -1.6722 v 4.0534 c 0,1.0689 0.51858,1.7462 1.6087,1.7462 0.67733,0 1.3441,-0.28575 1.7251,-0.83608 l 0.07408,0.65617 h 1.4605 v -5.6198 h -1.6722 v 3.9476 c -0.23283,0.381 -0.61383,0.61383 -0.9525,0.61383 -0.35983,0 -0.5715,-0.16933 -0.5715,-0.71966 z"
       id="path4"
       inkscape:connector-curvature="0" />
    <path
       d="m 44.753,127.21 c -0.67733,0.40217 -1.397,0.75142 -2.6458,0.71967 -1.4711,0 -2.5082,0.78317 -2.5082,2.0532 0,0.73025 0.28575,1.2277 0.99483,1.6087 -0.40217,0.254 -0.62442,0.65617 -0.62442,1.0689 0,0.59267 0.508,1.1112 1.7357,1.1112 h 0.889 c 0.56092,0 0.81492,0.23283 0.81492,0.56092 0,0.37041 -0.24342,0.64558 -1.3018,0.64558 -1.0689,0 -2.369,-0.60331 -2.2395,-1.2488 h -1.4605 c 0.0084,1.1154 1.4987,2.3495 3.6577,2.3495 1.9897,0 3.0057,-0.70909 3.0057,-1.8627 0,-0.94192 -0.83608,-1.6298 -2.1378,-1.6298 H 42.0015 c -0.53975,0 -0.61383,-0.16934 -0.61383,-0.33867 0,-0.127 0.0635,-0.254 0.17992,-0.3175 0.20108,0.0423 0.41275,0.0635 0.65617,0.0635 1.4499,0 2.3812,-0.79375 2.3812,-1.8838 0,-0.73025 -0.381,-1.143 -1.0901,-1.4499 0.70908,0 1.2277,-0.0635 1.6192,-0.22225 z m -2.6035,1.8098 c 0.56092,0 0.85725,0.29634 0.85725,0.92075 0,0.64559 -0.30692,0.98425 -0.85725,0.98425 -0.51858,0 -0.85725,-0.34925 -0.85725,-0.96308 0,-0.58208 0.32808,-0.94192 0.85725,-0.94192 z"
       id="path6"
       inkscape:connector-curvature="0" />
    <path
       d="m 49.247,132.11 v -2.2013 c 0,-1.2912 -0.78317,-1.9897 -2.4553,-1.9897 -0.62442,0 -1.4605,0.14816 -2.1908,0.42333 l 0.381,1.1112 c 0.56092,-0.1905 1.1853,-0.29633 1.5452,-0.29633 0.71967,0 1.1112,0.27516 1.1112,0.86783 v 0.20108 h -0.75142 c -1.7357,0 -2.7411,0.6985 -2.7411,1.9156 0,1.0372 0.74083,1.7674 1.905,1.7674 0.6985,0 1.4076,-0.24341 1.8415,-0.762 0.26458,0.46567 0.89698,0.57311 1.9114,0.58209 l 0.34925,-1.1007 c -0.26458,-0.0952 -0.90603,-0.0952 -0.90603,-0.51858 z m -2.6247,0.60325 c -0.47625,0 -0.75142,-0.254 -0.75142,-0.68792 0,-0.55033 0.42333,-0.84667 1.3547,-0.84667 h 0.41275 v 0.92075 c -0.21167,0.39159 -0.65617,0.61384 -1.016,0.61384 z"
       id="path8"
       inkscape:connector-curvature="0" />
    <path
       d="m 51.476,128.68 v -2.9845 l -1.6722,0.17991 v 7.8528 h 1.4817 l 0.0635,-0.508 c 0.32808,0.4445 0.8255,0.68791 1.3864,0.68791 1.4605,0 2.2542,-1.27 2.2542,-3.0057 0,-1.8309 -0.635,-2.9845 -2.0743,-2.9845 -0.5715,0 -1.0901,0.29633 -1.4393,0.762 z m 0.8255,4.0111 c -0.35983,0 -0.61383,-0.17992 -0.8255,-0.508 v -2.3707 c 0.24342,-0.41275 0.52917,-0.65616 0.91017,-0.65616 0.52917,0 0.87842,0.37041 0.87842,1.7674 0,1.27 -0.37042,1.7674 -0.96308,1.7674 z"
       id="path10"
       inkscape:connector-curvature="0" />
    <path
       d="m 56.456,125.17 c -0.58208,0 -0.99483,0.41275 -0.99483,0.94192 0,0.53975 0.41275,0.94191 0.99483,0.94191 0.58208,0 0.98425,-0.40216 0.98425,-0.94191 0,-0.52917 -0.40217,-0.94192 -0.98425,-0.94192 z m 1.0054,2.9422 h -4.2651 l 1.0583,1.143 h 1.5346 v 3.3338 h -1.5875 l -1.0583,1.143 h 5.7573 v -1.143 h -1.4393 z"
       id="path12"
       inkscape:connector-curvature="0" />
    <path
       d="m 58.262,133.73 h 1.6722 v -3.9264 c 0.3175,-0.40217 0.62442,-0.64558 0.98425,-0.64558 0.41275,0 0.53975,0.23283 0.53975,0.93133 v 3.6407 h 1.6722 v -4.1275 c 0,-1.0689 -0.58208,-1.6828 -1.5452,-1.6828 -0.71967,0 -1.2488,0.27516 -1.7462,0.83608 l -0.11642,-0.64558 h -1.4605 z"
       id="path14"
       inkscape:connector-curvature="0" />
    <path
       d="m 68.015,127.21 c -0.67733,0.40217 -1.397,0.75142 -2.6458,0.71967 -1.4711,0 -2.5082,0.78317 -2.5082,2.0532 0,0.73025 0.28575,1.2277 0.99483,1.6087 -0.40217,0.254 -0.62442,0.65617 -0.62442,1.0689 0,0.59267 0.508,1.1112 1.7357,1.1112 h 0.889 c 0.56092,0 0.81492,0.23283 0.81492,0.56092 0,0.37041 -0.24342,0.64558 -1.3018,0.64558 -1.0689,0 -2.3813,-0.32497 -2.2395,-1.2488 h -1.6722 c -0.01181,1.8318 1.7104,2.3495 3.8694,2.3495 1.9897,0 3.0057,-0.70909 3.0057,-1.8627 0,-0.94192 -0.83608,-1.6298 -2.1378,-1.6298 H 65.2635 c -0.53975,0 -0.61383,-0.16934 -0.61383,-0.33867 0,-0.127 0.0635,-0.254 0.17992,-0.3175 0.20108,0.0423 0.41275,0.0635 0.65617,0.0635 1.4499,0 2.3812,-0.79375 2.3812,-1.8838 0,-0.73025 -0.381,-1.143 -1.0901,-1.4499 0.70908,0 1.2277,-0.0635 1.6192,-0.22225 z m -2.6035,1.8098 c 0.56092,0 0.85725,0.29634 0.85725,0.92075 0,0.64559 -0.30692,0.98425 -0.85725,0.98425 -0.51858,0 -0.85725,-0.34925 -0.85725,-0.96308 0,-0.58208 0.32808,-0.94192 0.85725,-0.94192 z"
       id="path16"
       inkscape:connector-curvature="0" />
    <path
       d="m 72.509,132.11 v -2.2013 c 0,-1.2912 -0.78317,-1.9897 -2.4553,-1.9897 -0.62442,0 -1.4605,0.14816 -2.1908,0.42333 l 0.381,1.1112 c 0.56092,-0.1905 1.1853,-0.29633 1.5452,-0.29633 0.71967,0 1.1112,0.27516 1.1112,0.86783 v 0.20108 h -0.75142 c -1.7357,0 -2.7411,0.6985 -2.7411,1.9156 0,1.0372 0.74083,1.7674 1.905,1.7674 0.6985,0 1.4076,-0.24341 1.8415,-0.762 0.26458,0.46567 0.71967,0.67734 1.3758,0.74084 0,0 0.51358,0.0679 1.1101,-0.0325 -1.1766,-0.70976 -1.126,-0.98053 -1.1312,-1.7455 z m -2.6247,0.60325 c -0.47625,0 -0.75142,-0.254 -0.75142,-0.68792 0,-0.55033 0.42333,-0.84667 1.3547,-0.84667 h 0.41275 v 0.92075 c -0.21167,0.39159 -0.65617,0.61384 -1.016,0.61384 z"
       id="path18"
       inkscape:connector-curvature="0" />
  </g>
</svg>
